<mxfile host="65bd71144e">
    <diagram id="XzZwnlX70GwyBr0k9t_W" name="Page-1">
        <mxGraphModel dx="1054" dy="458" grid="1" gridSize="10" guides="1" tooltips="1" connect="1" arrows="1" fold="1" page="1" pageScale="1" pageWidth="850" pageHeight="1100" math="0" shadow="0">
            <root>
                <mxCell id="0"/>
                <mxCell id="1" parent="0"/>
                <mxCell id="11" style="edgeStyle=none;html=1;entryX=0;entryY=0.5;entryDx=0;entryDy=0;fontColor=#000000;exitX=0.75;exitY=0;exitDx=0;exitDy=0;strokeColor=#000000;" edge="1" parent="1" source="2" target="3">
                    <mxGeometry relative="1" as="geometry">
                        <Array as="points">
                            <mxPoint x="170" y="210"/>
                        </Array>
                    </mxGeometry>
                </mxCell>
                <mxCell id="27" style="edgeStyle=none;html=1;exitX=0.75;exitY=1;exitDx=0;exitDy=0;entryX=0;entryY=0.75;entryDx=0;entryDy=0;fontColor=#000000;strokeColor=#000000;" edge="1" parent="1" source="2" target="5">
                    <mxGeometry relative="1" as="geometry">
                        <Array as="points">
                            <mxPoint x="170" y="435"/>
                        </Array>
                    </mxGeometry>
                </mxCell>
                <mxCell id="2" value="&lt;font color=&quot;#000000&quot;&gt;User&lt;/font&gt;" style="whiteSpace=wrap;html=1;fillColor=#FFFFFF;" vertex="1" parent="1">
                    <mxGeometry x="80" y="280" width="120" height="60" as="geometry"/>
                </mxCell>
                <mxCell id="12" style="edgeStyle=none;html=1;exitX=1;exitY=0.5;exitDx=0;exitDy=0;entryX=0;entryY=0.5;entryDx=0;entryDy=0;fontColor=#000000;strokeColor=#000000;" edge="1" parent="1" source="3" target="6">
                    <mxGeometry relative="1" as="geometry">
                        <Array as="points"/>
                    </mxGeometry>
                </mxCell>
                <mxCell id="3" value="&lt;font color=&quot;#000000&quot;&gt;Camera&lt;/font&gt;" style="whiteSpace=wrap;html=1;fillColor=#FFFFFF;" vertex="1" parent="1">
                    <mxGeometry x="230" y="180" width="120" height="60" as="geometry"/>
                </mxCell>
                <mxCell id="16" style="edgeStyle=none;html=1;entryX=1;entryY=0.25;entryDx=0;entryDy=0;fontColor=#000000;strokeColor=#000000;exitX=0;exitY=0.25;exitDx=0;exitDy=0;" edge="1" parent="1" source="4" target="2">
                    <mxGeometry relative="1" as="geometry"/>
                </mxCell>
                <mxCell id="4" value="&lt;font color=&quot;#000000&quot;&gt;Display&lt;/font&gt;" style="whiteSpace=wrap;html=1;fillColor=#FFFFFF;" vertex="1" parent="1">
                    <mxGeometry x="360" y="280" width="120" height="60" as="geometry"/>
                </mxCell>
                <mxCell id="20" style="edgeStyle=none;html=1;fontColor=#000000;strokeColor=#000000;entryX=1;entryY=0.75;entryDx=0;entryDy=0;exitX=0;exitY=0.25;exitDx=0;exitDy=0;" edge="1" parent="1" source="5" target="2">
                    <mxGeometry relative="1" as="geometry">
                        <mxPoint x="290" y="420" as="targetPoint"/>
                        <Array as="points">
                            <mxPoint x="330" y="405"/>
                            <mxPoint x="330" y="325"/>
                        </Array>
                    </mxGeometry>
                </mxCell>
                <mxCell id="21" style="edgeStyle=none;html=1;exitX=1;exitY=0.25;exitDx=0;exitDy=0;entryX=0;entryY=0.25;entryDx=0;entryDy=0;fontColor=#000000;strokeColor=#000000;" edge="1" parent="1" source="5" target="8">
                    <mxGeometry relative="1" as="geometry"/>
                </mxCell>
                <mxCell id="5" value="&lt;font color=&quot;#000000&quot;&gt;Glove&lt;/font&gt;" style="whiteSpace=wrap;html=1;fillColor=#FFFFFF;" vertex="1" parent="1">
                    <mxGeometry x="360" y="390" width="120" height="60" as="geometry"/>
                </mxCell>
                <mxCell id="13" style="edgeStyle=none;html=1;exitX=1;exitY=0.5;exitDx=0;exitDy=0;entryX=0.5;entryY=0;entryDx=0;entryDy=0;fontColor=#000000;strokeColor=#000000;" edge="1" parent="1" source="6" target="10">
                    <mxGeometry relative="1" as="geometry">
                        <Array as="points">
                            <mxPoint x="650" y="210"/>
                        </Array>
                    </mxGeometry>
                </mxCell>
                <mxCell id="14" style="edgeStyle=none;html=1;exitX=1;exitY=0.75;exitDx=0;exitDy=0;entryX=1;entryY=0.25;entryDx=0;entryDy=0;fontColor=#000000;strokeColor=#000000;" edge="1" parent="1" source="6" target="4">
                    <mxGeometry relative="1" as="geometry">
                        <Array as="points">
                            <mxPoint x="560" y="225"/>
                            <mxPoint x="560" y="295"/>
                        </Array>
                    </mxGeometry>
                </mxCell>
                <mxCell id="17" style="edgeStyle=none;html=1;exitX=1;exitY=0.25;exitDx=0;exitDy=0;entryX=1;entryY=0.5;entryDx=0;entryDy=0;fontColor=#000000;strokeColor=#000000;" edge="1" parent="1" source="6" target="8">
                    <mxGeometry relative="1" as="geometry">
                        <Array as="points">
                            <mxPoint x="730" y="195"/>
                            <mxPoint x="730" y="420"/>
                        </Array>
                    </mxGeometry>
                </mxCell>
                <mxCell id="6" value="&lt;font color=&quot;#000000&quot;&gt;Pose Detection Algorithm&lt;br&gt;&lt;/font&gt;" style="whiteSpace=wrap;html=1;fillColor=#FFFFFF;" vertex="1" parent="1">
                    <mxGeometry x="420" y="180" width="120" height="60" as="geometry"/>
                </mxCell>
                <mxCell id="19" style="edgeStyle=none;html=1;fontColor=#000000;strokeColor=#000000;exitX=0;exitY=0.75;exitDx=0;exitDy=0;entryX=1;entryY=0.75;entryDx=0;entryDy=0;" edge="1" parent="1" source="8" target="5">
                    <mxGeometry relative="1" as="geometry"/>
                </mxCell>
                <mxCell id="8" value="&lt;font color=&quot;#000000&quot;&gt;Haptic Feedback Algorithm&lt;/font&gt;" style="whiteSpace=wrap;html=1;fillColor=#FFFFFF;" vertex="1" parent="1">
                    <mxGeometry x="560" y="390" width="120" height="60" as="geometry"/>
                </mxCell>
                <mxCell id="15" style="edgeStyle=none;html=1;exitX=0;exitY=0.5;exitDx=0;exitDy=0;entryX=1;entryY=0.75;entryDx=0;entryDy=0;fontColor=#000000;strokeColor=#000000;" edge="1" parent="1" source="10" target="4">
                    <mxGeometry relative="1" as="geometry">
                        <Array as="points">
                            <mxPoint x="570" y="290"/>
                            <mxPoint x="570" y="325"/>
                        </Array>
                    </mxGeometry>
                </mxCell>
                <mxCell id="18" style="edgeStyle=none;html=1;entryX=0.5;entryY=0;entryDx=0;entryDy=0;fontColor=#000000;strokeColor=#000000;" edge="1" parent="1" source="10" target="8">
                    <mxGeometry relative="1" as="geometry">
                        <Array as="points">
                            <mxPoint x="650" y="350"/>
                            <mxPoint x="620" y="350"/>
                        </Array>
                    </mxGeometry>
                </mxCell>
                <mxCell id="10" value="&lt;font color=&quot;#000000&quot;&gt;Activity Goal Algorithm&lt;/font&gt;" style="whiteSpace=wrap;html=1;fillColor=#FFFFFF;" vertex="1" parent="1">
                    <mxGeometry x="590" y="260" width="120" height="60" as="geometry"/>
                </mxCell>
                <mxCell id="22" value="Visual Feedback" style="text;html=1;align=center;verticalAlign=middle;resizable=0;points=[];autosize=1;strokeColor=none;fillColor=none;fontColor=#000000;" vertex="1" parent="1">
                    <mxGeometry x="220" y="270" width="100" height="20" as="geometry"/>
                </mxCell>
                <mxCell id="24" value="Haptic Feedback" style="text;html=1;align=center;verticalAlign=middle;resizable=0;points=[];autosize=1;strokeColor=none;fillColor=none;fontColor=#000000;" vertex="1" parent="1">
                    <mxGeometry x="215" y="330" width="110" height="20" as="geometry"/>
                </mxCell>
                <mxCell id="25" value="Video" style="text;html=1;align=center;verticalAlign=middle;resizable=0;points=[];autosize=1;strokeColor=none;fillColor=none;fontColor=#000000;" vertex="1" parent="1">
                    <mxGeometry x="360" y="190" width="50" height="20" as="geometry"/>
                </mxCell>
                <mxCell id="26" value="Movement" style="text;html=1;align=center;verticalAlign=middle;resizable=0;points=[];autosize=1;strokeColor=none;fillColor=none;fontColor=#000000;" vertex="1" parent="1">
                    <mxGeometry x="150" y="190" width="70" height="20" as="geometry"/>
                </mxCell>
                <mxCell id="28" value="Hand Orientation" style="text;html=1;align=center;verticalAlign=middle;resizable=0;points=[];autosize=1;strokeColor=none;fillColor=none;fontColor=#000000;" vertex="1" parent="1">
                    <mxGeometry x="210" y="410" width="110" height="20" as="geometry"/>
                </mxCell>
                <mxCell id="29" value="Acceleration&lt;br&gt;Data Packet" style="text;html=1;align=center;verticalAlign=middle;resizable=0;points=[];autosize=1;strokeColor=none;fillColor=none;fontColor=#000000;" vertex="1" parent="1">
                    <mxGeometry x="480" y="375" width="80" height="30" as="geometry"/>
                </mxCell>
                <mxCell id="30" value="Feedback&lt;br&gt;Data Packet" style="text;html=1;align=center;verticalAlign=middle;resizable=0;points=[];autosize=1;strokeColor=none;fillColor=none;fontColor=#000000;" vertex="1" parent="1">
                    <mxGeometry x="480" y="440" width="80" height="30" as="geometry"/>
                </mxCell>
                <mxCell id="31" value="Pose Data Coordinates" style="text;html=1;align=center;verticalAlign=middle;resizable=0;points=[];autosize=1;strokeColor=none;fillColor=none;fontColor=#000000;" vertex="1" parent="1">
                    <mxGeometry x="550" y="180" width="140" height="20" as="geometry"/>
                </mxCell>
                <mxCell id="32" value="Goal Data&lt;br&gt;Coordinates" style="text;html=1;align=center;verticalAlign=middle;resizable=0;points=[];autosize=1;strokeColor=none;fillColor=none;fontColor=#000000;" vertex="1" parent="1">
                    <mxGeometry x="485" y="325" width="80" height="30" as="geometry"/>
                </mxCell>
            </root>
        </mxGraphModel>
    </diagram>
</mxfile>